<?xml version="1.0"?>
<svg width="228" height="264" xmlns="http://www.w3.org/2000/svg" xmlns:svg="http://www.w3.org/2000/svg" enable-background="new 0 0 228 264" version="1.1" xml:space="preserve">
 <g class="layer">
  <title>Layer 1</title>
  <path d="m1,251.46c9.43,-9.4 18.94,-18.26 28.23,-27.34c2.89,-2.83 5.18,-6.27 8.18,-9.78c1.15,-0.34 1.87,-0.34 2.55,0.02c0.24,2.17 0.5,3.98 0.95,6.14c0.73,0.68 1.28,1.28 1.83,1.28c11.36,0.08 22.73,0.13 34.1,0.02c1.08,-0.01 2.14,-1.15 3.52,-1.93c1.82,-2.59 4.54,-4.97 4.62,-7.44c0.4,-12.13 0.09,-24.29 0.42,-36.34c0.8,1.74 1.53,3.38 1.55,5.04c0.11,8.89 -0.04,17.79 0.15,26.69c0.03,1.42 1.32,2.81 1.94,4.56c-4.1,5.83 -4.01,6.53 0.96,8.62c7.19,0.04 14.39,0.13 21.58,0.06c1.37,-0.01 2.73,-0.72 4.58,-1.61c1.31,-1.47 2.12,-2.45 2.93,-3.42c0.77,-0.28 1.55,-0.56 2.62,-0.94c0.29,-0.09 0.32,-0.1 0.31,0.33c-0.64,4.81 -4.31,5.78 5.57,5.75c9.88,-0.03 34.95,-0.1 52.43,0.03c1.63,0.01 3.25,1.15 4.58,1.91c-10.26,10.09 -20.26,20.01 -30.18,30.01c-2.66,2.68 -5.07,5.61 -8.04,8.51c-21.1,0.13 -41.76,0.17 -62.42,0.21c-27.65,0.05 -55.31,0.11 -82.96,0.16c0,-3.36 0,-6.72 0,-10.54z" fill="#ff9198" id="svg_3" opacity="1"/>
  <path d="m220.84,186.94c-11.78,11.61 -23.57,23.23 -35.61,34.56c-0.24,-19 -0.24,-37.71 -0.21,-56.43c0.01,-3.4 -0.23,-6.51 -4.91,-6.6c-0.14,-0.74 -0.24,-1.16 -0.13,-1.85c3.83,-3.91 7.43,-7.58 11.09,-11.19c10.96,-10.83 21.95,-21.62 32.93,-32.43c0,23.02 0,46.04 -0.27,69.7c-1.14,1.84 -2.01,3.04 -2.89,4.24z" fill="#ff9198" id="svg_5" opacity="1"/>
  <path d="m226.75,1c0.08,0.43 -0.08,0.87 -0.25,1.3c-0.15,-0.26 -0.31,-0.53 -0.48,-1.05c-0.02,-0.25 0.48,-0.25 0.73,-0.25z" fill="#FFFEFF" id="svg_13" opacity="1"/>
  <path d="m201.23,52.55c-2.01,3.21 -4.13,5.96 -6.34,9.04c-0.1,0.33 -0.51,0.44 -0.99,0.64c-1.92,1.81 -3.36,3.41 -4.8,5.02c-2.26,2.1 -4.52,4.2 -7.21,6.7c-1.19,1.29 -1.96,2.2 -2.74,3.1c-0.95,0.83 -1.91,1.66 -3.27,2.88c-1.19,1.3 -1.96,2.21 -2.73,3.12c-1.29,1.16 -2.57,2.32 -4.27,3.87c-1.19,1.31 -1.96,2.22 -2.74,3.13c-1.53,1.31 -3.06,2.62 -4.93,3.74c-0.43,-0.45 -0.53,-0.7 -0.62,-0.96c0.08,-11.19 0.19,-22.38 0.22,-33.57c0,-0.74 -0.55,-1.48 -1.21,-2.78c-2.35,-2.93 -4.34,-5.3 -6.32,-7.66c-0.48,-0.33 -0.96,-0.65 -1.82,-1.29c-1.08,-0.46 -1.76,-0.61 -2.83,-0.77c-2.77,1.49 -5.15,2.97 -7.87,4.39c-0.78,-0.12 -1.22,-0.18 -1.67,-0.62c-0.7,-4.39 -3.81,-4.47 -6.85,-4.48c-13.08,-0.02 -26.17,0 -39.27,-0.28c-0.07,-0.48 -0.11,-0.67 -0.15,-0.86c12.54,-12.59 25.07,-25.19 38.36,-37.92c13.44,-0.19 26.13,-0.25 38.82,-0.31c7.88,-0.12 14.2,3.66 20.66,8.55c1.36,1.26 2.33,2.07 3.3,2.88c0.51,0.87 1.02,1.73 1.81,2.74c1.74,0.79 3.2,1.45 5.35,2.42c0,9.17 0,18.99 0.11,29.28z" fill="#ff9198" id="svg_14" opacity="1" transform="matrix(1 0 0 1 0 0)"/>
  <path d="m89.13,213.04c-0.71,-1.41 -2,-2.8 -2.03,-4.22c-0.19,-8.9 -0.04,-17.8 -0.15,-26.69c-0.02,-1.66 -0.75,-3.3 -1.77,-5.06c-0.63,-0.1 -1.08,-0.12 -1.11,-0.36c-0.03,-0.23 -0.07,-0.72 -0.07,-1.13c0.01,-1.79 0.01,-3.16 0.23,-4.87c0.71,-2.14 1.64,-3.96 1.66,-5.78c0.11,-17.72 0.09,-35.43 0.02,-53.15c-0.01,-1.92 -0.62,-3.85 -0.73,-6.02c9.75,-9.77 19.27,-19.31 29.12,-28.88c1.78,-1.66 3.23,-3.27 4.96,-5.04c1.93,-1.12 3.57,-2.09 5.58,-2.99c0.61,0.1 0.86,0.12 1.15,0.62c0.06,33.5 0.08,66.54 0.07,99.58c-0.01,1.65 -0.25,3.3 -0.7,5.03c-0.61,0.83 -0.9,1.59 -1.2,2.34c-1.95,2.77 -3.6,5.83 -5.91,8.26c-5.82,6.09 -11.94,11.9 -18.36,18.23c-1.54,1.66 -2.66,2.91 -3.77,4.15c-1.26,1.13 -2.52,2.25 -4.17,3.78c-1.21,1 -2.01,1.6 -2.82,2.2z" fill="#ff9198" id="svg_15" opacity="1"/>
  <path d="m118.69,217.03c-0.41,0.97 -1.22,1.95 -2.3,3.09c0.45,-0.92 1.18,-2 2.3,-3.09z" fill="#FFFEFF" id="svg_30" opacity="1" transform="rotate(121.897 117.54 218.575)"/>
  <path d="m179.5,77.03c0.43,-0.88 1.2,-1.79 2.27,-2.77c-0.45,0.86 -1.18,1.8 -2.27,2.77z" fill="#FFFAFA" id="svg_32" opacity="1"/>
  <path d="m173.5,83.03c0.42,-0.89 1.19,-1.8 2.26,-2.8c-0.44,0.87 -1.18,1.82 -2.26,2.8z" fill="#FFFAFA" id="svg_33" opacity="1"/>
  <path d="m166.49,90.03c0.43,-0.89 1.2,-1.8 2.27,-2.8c-0.45,0.86 -1.18,1.82 -2.27,2.8z" fill="#FFFAFA" id="svg_34" opacity="1"/>
  <path d="m125.36,174.08c0.37,0.09 0.43,0.25 0.53,0.66c-0.37,0.65 -0.79,1.03 -1.47,1.55c0.04,-0.62 0.33,-1.38 0.94,-2.21z" fill="#FF9FA9" id="svg_35" opacity="1"/>
  <path d="m71.12,22.69c0.49,4.73 3.42,2.24 5.79,2.26c0.57,8.75 0.75,17.5 1.09,26.99c1.61,1.86 3.06,2.97 4.27,4.29c-0.59,0.72 -0.94,1.22 -1.65,1.81c-1.42,1.95 -3.35,3.81 -3.39,5.71c-0.27,12.96 -0.2,25.93 -0.05,38.9c0.01,1.4 1.2,2.79 2.13,4.37c1.14,0.33 2,0.47 2.83,1.01c-1.7,3.8 -4.73,7.17 -4.82,10.62c-0.49,17.92 -0.26,35.86 -0.18,53.79c0.01,1.52 0.73,3.03 0.93,4.83c-12.83,12.76 -25.45,25.25 -38.08,37.73c-0.71,0 -1.43,0 -2.49,0c-0.41,-21.94 -0.49,-43.88 -0.52,-65.82c-0.03,-28.75 -0.01,-57.51 0.28,-86.95c-0.15,-1.87 -0.59,-3.05 -1.03,-4.23c-1.61,-2.5 -3.23,-5 -5.1,-8.14c-4.12,-5.4 -9.6,-3.34 -14.44,-3.98c5.25,-5.4 10.49,-10.81 15.75,-16.2c1.72,-1.77 3.49,-3.51 5.65,-5.66c1.19,-1.29 1.95,-2.18 2.72,-3.08c0.3,-0.21 0.6,-0.42 1.31,-0.96c1.17,-1.24 1.94,-2.15 2.7,-3.05c0,0 0.1,-0.01 0.39,-0.14c1.07,-1.04 1.84,-1.94 2.61,-2.85c0.3,-0.2 0.59,-0.41 1.3,-0.95c1.18,-1.24 1.95,-2.14 2.72,-3.04c3.6,-3.95 6.9,-2.39 10.08,0.59c1.33,1.25 2.57,2.59 4.07,4.49c1.12,1.44 2.02,2.28 2.93,3.13c0.67,1.42 1.33,2.83 2.2,4.53z" fill="#ff9198" id="svg_37" opacity="1" transform="matrix(1 0 0 1 0 0)"/>
  <path d="m36.18,58.36c0.49,0.82 0.93,2 1.12,3.4c-0.56,-0.87 -0.87,-1.96 -1.12,-3.4z" fill="#FF9FA9" id="svg_40" opacity="1"/>
  <path d="m68.92,17.81c-0.91,-0.5 -1.81,-1.34 -2.72,-2.51c0.91,0.5 1.82,1.33 2.72,2.51z" fill="#FFF0F2" id="svg_41" opacity="1"/>
  <path d="m40.46,20.97c-0.42,0.87 -1.18,1.76 -2.24,2.74c0.44,-0.85 1.17,-1.78 2.24,-2.74z" fill="#FFFAFA" id="svg_42" opacity="1"/>
  <path d="m51.49,9.97c-0.42,0.88 -1.19,1.78 -2.26,2.77c0.45,-0.86 1.18,-1.8 2.26,-2.77z" fill="#FFFAFA" id="svg_43" opacity="1"/>
  <path d="m47.47,13.97c-0.42,0.88 -1.19,1.78 -2.25,2.77c0.44,-0.86 1.17,-1.8 2.25,-2.77z" fill="#FFFAFA" id="svg_44" opacity="1"/>
  <path d="m44.48,16.96c-0.42,0.87 -1.19,1.78 -2.25,2.77c0.44,-0.86 1.17,-1.8 2.25,-2.77z" fill="#FFFAFA" id="svg_45" opacity="1"/>
  <path d="m193.94,17.75c-0.95,-0.45 -1.92,-1.26 -2.97,-2.38c0.92,0.46 1.94,1.24 2.97,2.38z" fill="#FFFAFA" id="svg_53" opacity="1"/>
  <path d="m114.3,76.88c1.11,-1.58 2.55,-3.2 4.33,-4.85c-1.1,1.58 -2.55,3.19 -4.33,4.85z" fill="#FFF0F2" id="svg_58" opacity="1"/>
  <path d="m84,175.58c-0.94,-0.1 -1.88,-0.6 -3.21,-1.32c1.03,-1.15 1.83,-2.06 2.93,-3.09c0.29,1.25 0.29,2.62 0.28,4.41z" fill="#ff9198" id="svg_59" opacity="1"/>
 </g>
</svg>