<?xml version="1.0" standalone="no"?>
<!DOCTYPE svg PUBLIC "-//W3C//DTD SVG 20010904//EN"
 "http://www.w3.org/TR/2001/REC-SVG-20010904/DTD/svg10.dtd">
<svg version="1.0" xmlns="http://www.w3.org/2000/svg"
 width="24.000000pt" height="20.000000pt" viewBox="0 0 24.000000 20.000000"
 preserveAspectRatio="xMidYMid meet">
<metadata>
Created by potrace 1.10, written by Peter Selinger 2001-2011
</metadata>
<g transform="translate(0.000000,20.000000) scale(0.100000,-0.100000)"
fill="#000000" stroke="none">
<path d="M10 110 c0 -47 4 -80 10 -80 6 0 10 24 10 53 0 63 16 90 51 85 22 -3
24 -7 27 -70 4 -83 22 -91 22 -9 0 64 13 85 52 79 21 -3 23 -9 26 -70 2 -38 7
-68 12 -68 13 0 13 116 0 141 -12 22 -59 26 -78 7 -9 -9 -15 -9 -24 0 -15 15
-61 15 -76 0 -9 -9 -12 -9 -12 0 0 7 -4 12 -10 12 -6 0 -10 -33 -10 -80z"/>
</g>
</svg>
