<svg xmlns="http://www.w3.org/2000/svg" viewBox="0 0 560 460">
  <circle cx="264" cy="230" r="215" fill="yellow" stroke="black" stroke-width="2"/>
  <path
    d="m 416.473 0 l -217.933 385.66 h -198.54 l 170.17 -301.138 c 26.379 -46.68 92.207 -84.522 147.033 -84.522 Z m 486.875 96.415 c 0 -53.249 44.444 -96.415 99.272 -96.415 c 54.82 0 99.27 43.166 99.27 96.415 c 0 53.248 -44.45 96.415 -99.27 96.415 c -54.828 0 -99.272 -43.167 -99.272 -96.415 Z m -449.649 -96.415 h 198.54 l -217.933 385.66 h -198.54 Z m 234.492 0 h 198.542 l -170.173 301.138 c -26.378 46.68 -92.207 84.522 -147.032 84.522 h -99.27 Z"
    fill="black"
    fill-rule="nonzero"
    transform="matrix(.326712 0 0 .326712 100 137)"
  />
</svg>
