<svg role="img" viewBox="0 0 24 24" xmlns="http://www.w3.org/2000/svg" id="Upstash--Streamline-Simple-Icons" height="24" width="24">
  <desc>
    Upstash Streamline Icon: https://streamlinehq.com
  </desc>
  <title>Upstash</title>
  <path d="M13.8027 0C11.193 0 8.583 0.9952 6.5918 2.9863c-3.9823 3.9823 -3.9823 10.4396 0 14.4219 1.9911 1.9911 5.2198 1.9911 7.211 0 1.991 -1.9911 1.991 -5.2198 0 -7.211L12 12c0.9956 0.9956 0.9956 2.6098 0 3.6055 -0.9956 0.9955 -2.6099 0.9955 -3.6055 0 -2.9866 -2.9868 -2.9866 -7.8297 0 -10.8164 2.9868 -2.9868 7.8297 -2.9868 10.8164 0l1.8028 -1.8028C19.0225 0.9952 16.4125 0 13.8027 0zM12 12c-0.9956 -0.9956 -0.9956 -2.6098 0 -3.6055 0.9956 -0.9955 2.6098 -0.9955 3.6055 0 2.9867 2.9868 2.9867 7.8297 0 10.8164 -2.9867 2.9868 -7.8297 2.9868 -10.8164 0l-1.8028 1.8028c3.9823 3.9822 10.4396 3.9822 14.4219 0 3.9823 -3.9824 3.9823 -10.4396 0 -14.4219 -0.9956 -0.9956 -2.3006 -1.4922 -3.6055 -1.4922 -1.3048 0 -2.6099 0.4966 -3.6054 1.4922 -1.9912 1.9912 -1.9912 5.2198 0 7.211z" fill="#000000" stroke-width="1"></path>
</svg>